<svg width="18" height="18" viewBox="0 0 18 18" fill="none" xmlns="http://www.w3.org/2000/svg">
<path d="M16.5833 7.91672H4.48246L9.76913 2.63005C10.1916 2.20755 10.1916 1.51422 9.76913 1.09172C9.6689 0.991288 9.54986 0.911611 9.4188 0.857248C9.28775 0.802885 9.14726 0.774902 9.00538 0.774902C8.86349 0.774902 8.723 0.802885 8.59195 0.857248C8.4609 0.911611 8.34185 0.991288 8.24163 1.09172L1.10246 8.23088C1.00203 8.33111 0.922354 8.45015 0.86799 8.58121C0.813627 8.71226 0.785645 8.85275 0.785645 8.99463C0.785645 9.13651 0.813627 9.277 0.86799 9.40806C0.922354 9.53911 1.00203 9.65816 1.10246 9.75838L8.24163 16.8975C8.34192 16.9978 8.46099 17.0774 8.59204 17.1317C8.72308 17.186 8.86353 17.2139 9.00538 17.2139C9.14722 17.2139 9.28767 17.186 9.41871 17.1317C9.54976 17.0774 9.66883 16.9978 9.76913 16.8975C9.86942 16.7973 9.94898 16.6782 10.0033 16.5471C10.0575 16.4161 10.0855 16.2756 10.0855 16.1338C10.0855 15.992 10.0575 15.8515 10.0033 15.7205C9.94898 15.5894 9.86942 15.4703 9.76913 15.37L4.48246 10.0834H16.5833C17.1791 10.0834 17.6666 9.59588 17.6666 9.00005C17.6666 8.40422 17.1791 7.91672 16.5833 7.91672Z" fill="current"/>
</svg>
