<svg width="15" height="17" viewBox="0 0 15 17" fill="none" xmlns="http://www.w3.org/2000/svg">
<path d="M0.199951 2.6001C0.199962 2.24903 0.307781 1.90416 0.512573 1.60013C0.717366 1.2961 1.01192 1.04363 1.36662 0.868098V14.6001C1.36662 14.8653 1.48953 15.1197 1.70833 15.3072C1.92712 15.4947 2.22387 15.6001 2.53328 15.6001H11.8666C12.176 15.6001 12.4728 15.4947 12.6916 15.3072C12.9104 15.1197 13.0333 14.8653 13.0333 14.6001V2.6001C13.0333 2.33488 12.9104 2.08053 12.6916 1.89299C12.4728 1.70545 12.176 1.6001 11.8666 1.6001H9.53328V0.600098H11.8666C12.4855 0.600098 13.0789 0.810811 13.5165 1.18588C13.9541 1.56096 14.2 2.06966 14.2 2.6001V14.6001C14.2 15.1305 13.9541 15.6392 13.5165 16.0143C13.0789 16.3894 12.4855 16.6001 11.8666 16.6001H2.53328C1.91445 16.6001 1.32095 16.3894 0.883369 16.0143C0.445784 15.6392 0.199951 15.1305 0.199951 14.6001V2.6001ZM2.53328 0.600098V7.1001C2.53328 7.19295 2.56345 7.28398 2.6204 7.36296C2.67736 7.44195 2.75885 7.50578 2.85574 7.54731C2.95264 7.58884 3.06111 7.60642 3.169 7.59808C3.2769 7.58974 3.37995 7.55581 3.46662 7.5001L5.44995 6.2251L7.43328 7.5001C7.51995 7.55581 7.623 7.58974 7.7309 7.59808C7.83879 7.60642 7.94726 7.58884 8.04416 7.54731C8.14105 7.50578 8.22254 7.44195 8.2795 7.36296C8.33645 7.28398 8.36662 7.19295 8.36662 7.1001V0.600098H2.53328ZM3.69995 6.1001V1.6001H7.19995V6.1001L5.79995 5.2001C5.69898 5.13519 5.57617 5.1001 5.44995 5.1001C5.32374 5.1001 5.20092 5.13519 5.09995 5.2001L3.69995 6.1001Z" fill="black"/>
</svg>
