<svg width="12" height="10" viewBox="0 0 12 10" fill="#000842" xmlns="http://www.w3.org/2000/svg">
<path d="M11.1765 0H0.823529C0.605116 0 0.395648 0.0857556 0.241206 0.238402C0.0867645 0.391047 0 0.59808 0 0.813954V9.18605C0 9.40192 0.0867645 9.60895 0.241206 9.7616C0.395648 9.91424 0.605116 10 0.823529 10H11.1765C11.3949 10 11.6044 9.91424 11.7588 9.7616C11.9132 9.60895 12 9.40192 12 9.18605V0.813954C12 0.59808 11.9132 0.391047 11.7588 0.238402C11.6044 0.0857556 11.3949 0 11.1765 0ZM0.823529 0.697674H11.1765C11.2077 0.697674 11.2376 0.709925 11.2597 0.731732C11.2817 0.753538 11.2941 0.783114 11.2941 0.813954V7.06802L9.56059 5.35465C9.48412 5.27906 9.39333 5.2191 9.29341 5.17819C9.19349 5.13728 9.08639 5.11622 8.97824 5.11622C8.87008 5.11622 8.76299 5.13728 8.66306 5.17819C8.56314 5.2191 8.47235 5.27906 8.39588 5.35465L7.13588 6.6L4.46471 3.9593C4.38823 3.88371 4.29744 3.82375 4.19752 3.78284C4.0976 3.74193 3.99051 3.72087 3.88235 3.72087C3.7742 3.72087 3.6671 3.74193 3.56718 3.78284C3.46726 3.82375 3.37647 3.88371 3.3 3.9593L0.705882 6.52326V0.813954C0.705882 0.783114 0.718277 0.753538 0.74034 0.731732C0.762403 0.709925 0.792327 0.697674 0.823529 0.697674ZM0.705882 9.18605V7.50988L3.79882 4.45291C3.80976 4.44201 3.82277 4.43336 3.83711 4.42745C3.85145 4.42155 3.86682 4.41851 3.88235 4.41851C3.89788 4.41851 3.91326 4.42155 3.9276 4.42745C3.94193 4.43336 3.95495 4.44201 3.96588 4.45291L8.87235 9.30233H0.823529C0.792327 9.30233 0.762403 9.29008 0.74034 9.26827C0.718277 9.24646 0.705882 9.21689 0.705882 9.18605ZM11.1765 9.30233H9.87059L7.63529 7.09302L8.89471 5.84767C8.90563 5.83686 8.91861 5.82829 8.93289 5.82243C8.94717 5.81658 8.96248 5.81357 8.97794 5.81357C8.9934 5.81357 9.00871 5.81658 9.02299 5.82243C9.03728 5.82829 9.05025 5.83686 9.06118 5.84767L11.2965 8.05698V9.18605C11.2965 9.20151 11.2934 9.21683 11.2873 9.23109C11.2812 9.24535 11.2724 9.25827 11.2612 9.2691C11.25 9.27993 11.2368 9.28845 11.2222 9.29415C11.2077 9.29986 11.1921 9.30264 11.1765 9.30233ZM7.05882 3.37209C7.05882 3.2571 7.09332 3.1447 7.15796 3.04909C7.2226 2.95348 7.31447 2.87896 7.42195 2.83495C7.52944 2.79095 7.64771 2.77944 7.76182 2.80187C7.87592 2.8243 7.98074 2.87967 8.063 2.96098C8.14527 3.04229 8.20129 3.14589 8.22399 3.25867C8.24669 3.37145 8.23504 3.48835 8.19052 3.59458C8.146 3.70082 8.0706 3.79162 7.97387 3.85551C7.87713 3.91939 7.7634 3.95349 7.64706 3.95349C7.49105 3.95349 7.34143 3.89223 7.23111 3.7832C7.1208 3.67417 7.05882 3.52629 7.05882 3.37209Z" fill="current"/>
</svg>
