<svg width="18" height="13" viewBox="0 0 18 13" fill="#000" xmlns="http://www.w3.org/2000/svg">
<path d="M1.49755 0.67627H15.5419C16.3677 0.67627 17.0396 1.34654 17.0396 2.17041V10.8292C17.0396 11.6531 16.3677 12.3233 15.5419 12.3233H1.49755C0.671758 12.3233 -7.62939e-05 11.6531 -7.62939e-05 10.8292V2.17041C-7.62939e-05 1.34654 0.671758 0.67627 1.49755 0.67627ZM1.693 1.67236L1.89289 1.83841L7.92555 6.85013C8.26987 7.13614 8.76967 7.13614 9.11393 6.85013L15.1466 1.83841L15.3465 1.67236H1.693ZM16.0411 2.39148L11.1259 6.4749L16.0411 9.73853V2.39148ZM1.49755 11.3272H15.5419C15.7831 11.3272 15.9849 11.1556 16.0311 10.9284L10.3253 7.13992L9.75278 7.61559C9.39555 7.91236 8.95761 8.06074 8.5197 8.06074C8.0818 8.06074 7.64389 7.91236 7.28663 7.61559L6.71407 7.13992L1.00832 10.9284C1.05458 11.1557 1.25633 11.3272 1.49755 11.3272ZM0.998339 9.73853L5.91361 6.47493L0.998339 2.39148V9.73853Z" fill="current"/>
</svg>
