<svg width="15" height="15" viewBox="0 0 15 15" fill="none" xmlns="http://www.w3.org/2000/svg">
<path d="M9.8462 7.65334C9.84551 8.23478 9.61423 8.7922 9.2031 9.20334C8.79196 9.61448 8.23453 9.84576 7.65309 9.84644C7.07166 9.84576 6.51423 9.61448 6.10309 9.20334C5.69195 8.7922 5.46068 8.23478 5.45999 7.65334C5.46068 7.0719 5.69195 6.51447 6.10309 6.10334C6.51423 5.6922 7.07166 5.46092 7.65309 5.46024C8.23453 5.46092 8.79196 5.6922 9.2031 6.10334C9.61423 6.51447 9.84551 7.0719 9.8462 7.65334ZM7.65309 0.362305C3.63258 0.362305 0.362061 3.63282 0.362061 7.65334C0.362061 11.6739 3.63258 14.9444 7.65309 14.9444C9.1262 14.9444 10.546 14.5063 11.76 13.6766L11.7807 13.6621L10.799 12.5206L10.7819 12.5309C9.84906 13.1318 8.76272 13.451 7.65309 13.4501C4.45654 13.4501 1.85689 10.8494 1.85689 7.65334C1.85689 4.4573 4.45706 1.85713 7.65309 1.85713C10.8496 1.85713 13.4498 4.4573 13.4498 7.65334C13.4498 8.06713 13.4033 8.48661 13.3133 8.89937C13.1296 9.65196 12.6026 9.88213 12.2074 9.85161C11.8091 9.81954 11.3436 9.5361 11.341 8.84248V7.65334C11.3401 6.67553 10.9512 5.73805 10.2598 5.04664C9.56838 4.35522 8.6309 3.96637 7.65309 3.96541C6.67529 3.96637 5.73781 4.35522 5.04639 5.04664C4.35498 5.73805 3.96612 6.67553 3.96516 7.65334C3.96612 8.63114 4.35498 9.56863 5.04639 10.26C5.73781 10.9515 6.67529 11.3403 7.65309 11.3413C8.13912 11.3426 8.62054 11.2471 9.06921 11.0602C9.51789 10.8734 9.92481 10.5989 10.2662 10.253C10.4643 10.5635 10.732 10.8236 11.0481 11.0126C11.3643 11.2016 11.7201 11.3143 12.0874 11.3418C12.6875 11.39 13.2842 11.215 13.7633 10.8504C14.2003 10.5183 14.5272 10.0383 14.7072 9.46213C14.7357 9.36903 14.789 9.15592 14.789 9.15437L14.7905 9.14662C14.8971 8.6842 14.9441 8.22334 14.9441 7.65334C14.9441 3.63282 11.6741 0.362305 7.65309 0.362305Z" fill="#FF9E00"/>
</svg>
