<svg width="14" height="15" viewBox="0 0 14 15" fill="none" xmlns="http://www.w3.org/2000/svg">
<path d="M13.6189 10.3217L11.6652 8.36569C10.9674 7.66711 9.7812 7.94657 9.50209 8.85469C9.29276 9.48344 8.595 9.83273 7.96701 9.69299C6.57148 9.3437 4.68751 7.5274 4.33863 6.06038C4.1293 5.43164 4.54796 4.73306 5.17595 4.52351C6.08304 4.24408 6.36215 3.0565 5.66438 2.35793L3.71064 0.401909C3.15243 -0.0870947 2.31511 -0.0870947 1.82668 0.401909L0.500926 1.72921C-0.824827 3.12636 0.640479 6.82882 3.91997 10.1121C7.19947 13.3954 10.8976 14.9323 12.2931 13.5352L13.6189 12.2079C14.1074 11.649 14.1074 10.8107 13.6189 10.3217Z" fill="white"/>
</svg>
