<svg width="105" height="91" viewBox="0 0 105 91" fill="#000842" xmlns="http://www.w3.org/2000/svg">
<path d="M13.9175 0C10.4729 0 7.16944 1.36836 4.73374 3.80405C2.29805 6.23975 0.929688 9.54326 0.929688 12.9879V77.9271C0.929688 81.3717 2.29805 84.6752 4.73374 87.1109C7.16944 89.5466 10.4729 90.915 13.9175 90.915H91.8447C95.2893 90.915 98.5928 89.5466 101.028 87.1109C103.464 84.6752 104.833 81.3717 104.833 77.9271V12.9879C104.833 9.54326 103.464 6.23975 101.028 3.80405C98.5928 1.36836 95.2893 0 91.8447 0H13.9175ZM91.8447 6.49393C93.567 6.49393 95.2187 7.17811 96.4366 8.39595C97.6544 9.6138 98.3386 11.2656 98.3386 12.9879V55.1984L73.811 42.5547C73.2021 42.2496 72.5126 42.1438 71.8401 42.2522C71.1677 42.3606 70.5463 42.6777 70.064 43.1586L45.9716 67.2511L28.6977 55.7439C28.074 55.3286 27.326 55.1419 26.5803 55.2153C25.8346 55.2887 25.1373 55.6177 24.6065 56.1465L7.42361 71.4332V12.9879C7.42361 11.2656 8.1078 9.6138 9.32564 8.39595C10.5435 7.17811 12.1952 6.49393 13.9175 6.49393H91.8447Z" fill="current"/>
</svg>
