<svg width="12" height="12" viewBox="0 0 12 12" fill="#000842" xmlns="http://www.w3.org/2000/svg">
<path d="M11.4539 1.25582H7.08354V0H6.31085L0 1.11911V10.8837L6.23592 12H7.08354V10.6046H11.1732C11.4062 10.5935 11.6651 10.6172 11.864 10.4693C12.0221 10.2196 11.9838 9.90697 11.9974 9.62512V1.80281C12.0288 1.48189 11.7673 1.22513 11.4539 1.25582ZM3.99691 6.46326C3.68759 6.6251 3.33326 6.60279 2.99667 6.59163L2.99531 8.22835L2.18447 8.15859L2.18583 3.68653C2.92582 3.72279 3.82249 3.38653 4.43573 3.95442C5.02308 4.6842 4.86771 6.02652 3.99691 6.46326ZM11.3463 9.94612H7.08354V9.06975H10.3541V8.51165H7.08354V7.81397H10.3541V7.25582H7.0849C7.0849 7.25582 7.08354 6.70886 7.08218 6.43537C7.62183 6.60699 8.23643 6.60281 8.71882 6.27072C9.24078 5.95397 9.51331 5.34979 9.55828 4.74701H7.76492V2.92468L7.08354 3.06562V1.91436H11.3463V9.94612ZM8.03735 2.63303C8.98446 2.67767 9.78178 3.49747 9.8322 4.46445H8.03735V2.63303ZM2.99531 4.44139C3.26377 4.42884 3.59627 4.37861 3.77752 4.63673C3.93288 4.91024 3.9247 5.27024 3.79523 5.5521C3.63989 5.83952 3.28828 5.81164 3.01711 5.84512C2.98852 5.37768 2.99121 4.91024 2.99531 4.44139Z" fill="current"/>
</svg>
