<svg width="80" height="77" viewBox="0 0 80 77" fill="none" xmlns="http://www.w3.org/2000/svg">
<path fill-rule="evenodd" clip-rule="evenodd" d="M17.9244 43.4345C17.625 43.1361 17.2438 42.9328 16.8288 42.8505C16.4138 42.7682 15.9836 42.8105 15.5927 42.9721C15.2018 43.1337 14.8676 43.4073 14.6324 43.7584C14.3971 44.1095 14.2714 44.5223 14.271 44.9447V62.0406C14.271 62.6074 14.4965 63.1509 14.898 63.5517C15.2994 63.9525 15.8439 64.1776 16.4117 64.1776H33.5369C33.9601 64.1772 34.3736 64.0517 34.7253 63.8169C35.0769 63.582 35.351 63.2484 35.5129 62.8581C35.6748 62.4679 35.7171 62.0385 35.6347 61.6242C35.5523 61.2099 35.3487 60.8293 35.0497 60.5305L17.9244 43.4345ZM21.4259 59.9032C19.8389 59.9034 18.5523 58.617 18.5523 57.03C18.5523 54.4715 21.6447 53.189 23.4554 54.9966C25.2677 56.8058 23.9866 59.9028 21.4259 59.9032Z" fill="#005FF9"/>
<path fill-rule="evenodd" clip-rule="evenodd" d="M8.52697 15.5302C5.3802 12.3917 0 14.6141 0 19.0562V70.5891C0 72.2894 0.6766 73.92 1.88096 75.1223C3.08531 76.3246 4.71877 77 6.42198 77H58.0433C62.493 77 64.7222 71.6291 61.574 68.4877L8.52697 15.5302ZM4.28132 59.9041C4.28132 58.3305 5.55701 57.0548 7.13064 57.0548H9.2762C9.84394 57.0548 10.3884 56.8296 10.7899 56.4289C11.1913 56.0281 11.4169 55.4846 11.4169 54.9178C11.4169 54.351 11.1913 53.8075 10.7899 53.4067C10.3884 53.0059 9.84394 52.7808 9.2762 52.7808H7.13064C5.55701 52.7808 4.28132 51.5051 4.28132 49.9315V49.2228C4.28132 48.0406 5.23973 47.0822 6.42198 47.0822C6.98972 47.0822 7.53421 46.857 7.93566 46.4562C8.33711 46.0555 8.56264 45.5119 8.56264 44.9452C8.56264 44.3784 8.33711 43.8349 7.93566 43.4341C7.53421 43.0333 6.98972 42.8082 6.42198 42.8082C5.23973 42.8082 4.28132 41.8498 4.28132 40.6675V39.9589C4.28132 38.3852 5.55701 37.1095 7.13064 37.1095H9.2762C9.84394 37.1095 10.3884 36.8844 10.7899 36.4836C11.1913 36.0829 11.4169 35.5393 11.4169 34.9725C11.4169 34.4058 11.1913 33.8622 10.7899 33.4615C10.3884 33.0607 9.84394 32.8356 9.2762 32.8356H8.28132C6.07219 32.8356 4.28132 31.0447 4.28132 28.8356V19.0562C4.28135 18.9153 4.32327 18.7775 4.40177 18.6604C4.48026 18.5432 4.59181 18.4519 4.7223 18.3981C4.85278 18.3442 4.99633 18.3303 5.13478 18.3579C5.27323 18.3855 5.40036 18.4535 5.50007 18.5533L58.5471 71.5094C58.647 71.6089 58.7152 71.7358 58.7429 71.874C58.7705 72.0123 58.7565 72.1556 58.7026 72.2858C58.6487 72.4161 58.5572 72.5274 58.4399 72.6058C58.3225 72.6842 58.1845 72.726 58.0433 72.726H6.42198C5.85424 72.726 5.30976 72.5009 4.90831 72.1001C4.50686 71.6994 4.28132 71.1558 4.28132 70.5891V69.1681C4.28132 67.9858 5.23973 67.0274 6.42198 67.0274C6.98972 67.0274 7.53421 66.8023 7.93566 66.4015C8.33711 66.0007 8.56264 65.4572 8.56264 64.8904C8.56264 64.3237 8.33711 63.7801 7.93566 63.3793C7.53421 62.9786 6.98972 62.7534 6.42198 62.7534C5.23973 62.7534 4.28132 61.795 4.28132 60.6128V59.9041Z" fill="#005FF9"/>
<path fill-rule="evenodd" clip-rule="evenodd" d="M68.053 57.5262C66.6597 56.9533 65.3938 56.1108 64.3283 55.0473L19.5228 10.3172C19.1251 9.92031 18.8097 9.44911 18.5945 8.93052C18.3793 8.41193 18.2686 7.8561 18.2686 7.29477C18.2686 6.73345 18.3793 6.17762 18.5945 5.65902C18.8097 5.14043 19.1251 4.66924 19.5228 4.27236L22.5497 1.25208C22.9472 0.855123 23.4192 0.540239 23.9387 0.325406C24.4582 0.110573 25.015 0 25.5773 0C26.1396 0 26.6964 0.110573 27.2158 0.325406C27.7353 0.540239 28.2073 0.855123 28.6049 1.25208L73.7143 46.2842C74.5819 47.1508 75.3038 48.1514 75.8521 49.2475L79.6882 56.9036C80.8684 59.26 78.4894 61.8158 76.0491 60.8129L68.053 57.5262ZM23.5586 8.30414C23.2911 8.03698 23.1408 7.67468 23.1408 7.29691C23.1408 6.91914 23.2911 6.55684 23.5586 6.28967L24.5676 5.28102C24.7001 5.14856 24.8575 5.04347 25.0308 4.97178C25.204 4.90008 25.3897 4.86318 25.5773 4.86318C25.7648 4.86318 25.9505 4.90008 26.1238 4.97178C26.297 5.04347 26.4544 5.14856 26.587 5.28102L28.6049 7.29691C28.8724 7.56407 29.0227 7.92638 29.0227 8.30414C29.0227 8.68191 28.8724 9.04422 28.6049 9.31138L27.5959 10.3186C27.3283 10.5857 26.9654 10.7357 26.587 10.7357C26.2085 10.7357 25.8456 10.5857 25.578 10.3186L23.5586 8.30414ZM30.6228 13.3403C30.4901 13.4726 30.3849 13.6298 30.3131 13.8027C30.2412 13.9757 30.2043 14.161 30.2043 14.3483C30.2043 14.5355 30.2412 14.7209 30.3131 14.8938C30.3849 15.0668 30.4901 15.2239 30.6228 15.3562L66.8029 51.4742C66.9011 51.5721 67.0131 51.6551 67.1354 51.7207C69.0311 52.7396 71.0997 50.6773 70.0781 48.783C70.0124 48.661 69.9292 48.5491 69.8312 48.4511L33.6483 12.3345C33.3807 12.0674 33.0177 11.9174 32.6393 11.9174C32.2609 11.9174 31.898 12.0674 31.6304 12.3345L30.6214 13.3417L30.6228 13.3403Z" fill="#7C0CC1"/>
</svg>
