<svg width="80" height="77" viewBox="0 0 80 77" fill="none" xmlns="http://www.w3.org/2000/svg">
<path fill-rule="evenodd" clip-rule="evenodd" d="M74.2858 13.7502C74.2858 12.1456 73.6236 10.6068 72.4448 9.4722C71.266 8.3376 69.6672 7.7002 68.0001 7.7002H10.8572C9.19017 7.7002 7.59138 8.3376 6.41258 9.4722C5.23378 10.6068 4.57153 12.1456 4.57153 13.7502V43.4502C4.57153 45.0548 5.23378 46.5936 6.41258 47.7282C7.59138 48.8628 9.19017 49.5002 10.8572 49.5002H25.7144C26.169 49.5002 26.6051 49.3264 26.9266 49.0169C27.2481 48.7075 27.4287 48.2878 27.4287 47.8502C27.4287 47.4126 27.2481 46.9929 26.9266 46.6835C26.6051 46.374 26.169 46.2002 25.7144 46.2002H10.8572C10.0995 46.2002 9.37276 45.9105 8.83694 45.3947C8.30112 44.879 8.0001 44.1795 8.0001 43.4502V13.7502C8.0001 13.0209 8.30112 12.3214 8.83694 11.8057C9.37276 11.2899 10.0995 11.0002 10.8572 11.0002H68.0001C68.7579 11.0002 69.4846 11.2899 70.0204 11.8057C70.5562 12.3214 70.8573 13.0209 70.8573 13.7502V43.4502C70.8573 44.1795 70.5562 44.879 70.0204 45.3947C69.4846 45.9105 68.7579 46.2002 68.0001 46.2002H65.7144C65.2597 46.2002 64.8237 46.374 64.5022 46.6835C64.1807 46.9929 64.0001 47.4126 64.0001 47.8502C64.0001 48.2878 64.1807 48.7075 64.5022 49.0169C64.8237 49.3264 65.2597 49.5002 65.7144 49.5002H68.0001C69.6672 49.5002 71.266 48.8628 72.4448 47.7282C73.6236 46.5936 74.2858 45.0548 74.2858 43.4502V13.7502Z" fill="#005FF9"/>
<path fill-rule="evenodd" clip-rule="evenodd" d="M55.4286 21.4501C55.4286 22.3168 55.2513 23.1751 54.9067 23.9758C54.5621 24.7766 54.057 25.5041 53.4202 26.117C52.7835 26.7299 52.0276 27.216 51.1956 27.5477C50.3637 27.8794 49.472 28.0501 48.5715 28.0501C47.671 28.0501 46.7793 27.8794 45.9474 27.5477C45.1154 27.216 44.3595 26.7299 43.7228 26.117C43.086 25.5041 42.5809 24.7766 42.2363 23.9758C41.8917 23.1751 41.7144 22.3168 41.7144 21.4501C41.7144 19.6997 42.4368 18.0209 43.7228 16.7832C45.0087 15.5455 46.7529 14.8501 48.5715 14.8501C50.3901 14.8501 52.1343 15.5455 53.4202 16.7832C54.7062 18.0209 55.4286 19.6997 55.4286 21.4501ZM52.0001 21.4501C52.0001 22.3253 51.6388 23.1647 50.9959 23.7836C50.3529 24.4024 49.4808 24.7501 48.5715 24.7501C47.6622 24.7501 46.7901 24.4024 46.1471 23.7836C45.5042 23.1647 45.1429 22.3253 45.1429 21.4501C45.1429 20.5749 45.5042 19.7355 46.1471 19.1166C46.7901 18.4978 47.6622 18.1501 48.5715 18.1501C49.4808 18.1501 50.3529 18.4978 50.9959 19.1166C51.6388 19.7355 52.0001 20.5749 52.0001 21.4501Z" fill="#7C0CC1"/>
<path d="M44.5715 51.1499C44.1168 51.1499 43.6808 51.3237 43.3593 51.6332C43.0378 51.9426 42.8572 52.3623 42.8572 52.7999V71.4999C42.8572 71.9375 43.0378 72.3572 43.3593 72.6666C43.6808 72.9761 44.1168 73.1499 44.5715 73.1499C45.0261 73.1499 45.4622 72.9761 45.7836 72.6666C46.1051 72.3572 46.2857 71.9375 46.2857 71.4999V52.7999C46.2857 52.3623 46.1051 51.9426 45.7836 51.6332C45.4622 51.3237 45.0261 51.1499 44.5715 51.1499Z" fill="#7C0CC1"/>
<path d="M50.8571 52.7999C50.8571 52.3623 51.0377 51.9427 51.3592 51.6332C51.6807 51.3238 52.1167 51.1499 52.5714 51.1499H53.7143C54.472 51.1499 55.1987 50.8602 55.7346 50.3445C56.2704 49.8288 56.5714 49.1293 56.5714 48.3999V37.4912C56.5714 36.7619 56.2704 36.0624 55.7346 35.5467C55.1987 35.031 54.472 34.7412 53.7143 34.7412H42.3954C39.3796 34.7414 36.4298 33.8909 33.9108 32.2948L25.9143 27.2282C25.5345 26.9876 25.2696 26.6115 25.1778 26.1829C25.0861 25.7542 25.1751 25.308 25.4251 24.9424C25.6752 24.5769 26.0659 24.3219 26.5112 24.2336C26.9566 24.1453 27.4202 24.231 27.8 24.4716L35.7965 29.5382C37.7557 30.7797 40.0498 31.4413 42.3954 31.4412H53.7143C55.3813 31.4412 56.9801 32.0787 58.1589 33.2132C59.3377 34.3478 60 35.8867 60 37.4912V48.3999C59.9999 49.9092 59.4137 51.364 58.3565 52.4787C57.2992 53.5934 55.8473 54.2874 54.2857 54.4246V71.4999C54.2857 71.9375 54.1051 72.3572 53.7836 72.6667C53.4621 72.9761 53.0261 73.1499 52.5714 73.1499C52.1167 73.1499 51.6807 72.9761 51.3592 72.6667C51.0377 72.3572 50.8571 71.9375 50.8571 71.4999V52.7999Z" fill="#7C0CC1"/>
</svg>
