<svg width="20" height="12" viewBox="0 0 20 12" fill="none" xmlns="http://www.w3.org/2000/svg">
<path d="M18.7364 11.999H16.6561C15.8693 11.999 15.6323 11.3216 14.222 9.82124C12.9895 8.55838 12.4689 8.40136 12.1571 8.40136C11.7259 8.40136 11.6083 8.52736 11.6083 9.15831V11.1471C11.6083 11.685 11.4442 12 10.1224 12C8.83994 11.9084 7.59635 11.4942 6.494 10.7916C5.39165 10.0889 4.4621 9.11786 3.7819 7.95844C2.16683 5.82138 1.04307 3.31315 0.5 0.633233C0.5 0.301767 0.618513 0.00131501 1.2129 0.00131501H3.29144C3.82566 0.00131501 4.01802 0.254276 4.22769 0.838703C5.23688 3.99635 6.95897 6.74306 7.65819 6.74306C7.92622 6.74306 8.04291 6.61707 8.04291 5.90665V2.65401C7.95448 1.17017 7.21331 1.04514 7.21331 0.508206C7.22269 0.366549 7.28364 0.234358 7.38322 0.13971C7.4828 0.0450625 7.61316 -0.00458431 7.74662 0.00131501H11.0139C11.4606 0.00131501 11.6083 0.237799 11.6083 0.80575V5.19622C11.6083 5.67016 11.7998 5.82717 11.9347 5.82717C12.2027 5.82717 12.4087 5.67016 12.9001 5.14873C13.9534 3.78312 14.8139 2.26165 15.4545 0.632264C15.5201 0.436634 15.6441 0.269177 15.8075 0.155434C15.971 0.0416916 16.1649 -0.0120931 16.3598 0.00228414H18.4392C19.0628 0.00228414 19.195 0.333751 19.0628 0.80672C18.3065 2.6079 17.3706 4.31765 16.2714 5.90665C16.0471 6.27009 15.9578 6.45909 16.2714 6.88554C16.4774 7.217 17.2067 7.86443 17.6963 8.47987C18.4092 9.23584 19.0008 10.1101 19.4484 11.0676C19.6271 11.684 19.3299 11.999 18.7364 11.999Z" fill="#0077FF"/>
</svg>
