<svg width="12" height="12" viewBox="0 0 12 12" fill="none" xmlns="http://www.w3.org/2000/svg">
<path d="M11.4581 1.11629H7.0853V0H6.27017L0 1.11907V10.8837L6.23337 12H7.0853V10.8879H11.1773C11.409 10.8767 11.6666 10.8949 11.8656 10.7498C12.0251 10.5 11.9842 10.1874 11.9978 9.90557V1.65768C12.0264 1.33954 11.7688 1.08419 11.4581 1.11629ZM4.54723 7.89628C4.3196 8.01768 3.97882 7.89069 3.70894 7.91022C3.52765 6.98652 3.31636 6.06838 3.15417 5.14048C2.99468 6.04187 2.78749 6.93486 2.60484 7.83069C2.34314 7.81675 2.08008 7.79998 1.81699 7.78186C1.5907 6.55394 1.32492 5.33441 1.11363 4.10372C1.34672 4.09256 1.58116 4.0828 1.81425 4.07442C1.95464 4.96327 2.11413 5.84791 2.23683 6.73815C2.42902 5.82558 2.62528 4.91303 2.81613 4.00048C3.07512 3.98513 3.3341 3.97397 3.59309 3.96001C3.77438 4.90187 3.95974 5.84232 4.15603 6.77999C4.31006 5.81164 4.48043 4.84604 4.64538 3.87908C4.91799 3.86931 5.19061 3.85396 5.46185 3.83721C5.15381 5.1893 4.88391 6.55257 4.54723 7.89628ZM11.3491 10.2252H7.0853V9.34883H10.6293V8.79069H7.0853V8.09302H10.6293V7.53488H7.0853V6.83719H10.6293V6.27908H7.0853V5.58138H10.6293V5.02327H7.0853V4.32558H10.6293V3.76744H7.0853V3.06977H10.6293V2.51164H7.0853V1.77483H11.3491V10.2252Z" fill="#000842"/>
</svg>
